<?xml version="1.0" encoding="UTF-8"?>
<svg id="Layer_1" data-name="Layer 1" xmlns="http://www.w3.org/2000/svg" viewBox="0 0 191.63 112.53">
  <defs>
    <style>
      .cls-1 {
        fill: #ac9362;
      }

      .cls-1, .cls-2, .cls-3, .cls-4 {
        stroke-width: 0px;
      }

      .cls-2, .cls-4 {
        fill: #fff;
      }

      .cls-3 {
        fill: #454f00;
      }

      .cls-4 {
        fill-rule: evenodd;
      }
    </style>
  </defs>
  <g>
    <path class="cls-1" d="M191.24,93.26c-.24-.36-.55-.67-.87-.96-.94-.88-2.05-1.48-3.22-1.97-1.27-.53-2.57-.99-3.85-1.49-.3-.11-.64-.15-.83-.46.01-.07,0-.15.04-.21.54-1.1.48-1.68-.31-2.55-.19-.21-.39-.43-.63-.59-.66-.43-1.34-.85-2.03-1.24-.62-.35-1.35-.52-1.9-1.01.04-.18.06-.32.1-.46.26-.84-.03-1.49-.68-2.01-.35-.26-.71-.51-1.08-.72-1.35-.79-2.85-1.25-4.3-1.79-1.22-.45-2.47-.82-3.72-1.18-.65-.2-1.32-.36-2-.48-1.35-.22-2.59.08-3.7.88-.24.17-.46.35-.63.46-.76.03-1.45.05-2.13.1-.76.05-1.27.63-1.86.98-.19-.07-.33-.1-.46-.16-1.77-.82-3.56-1.6-5.31-2.46-2.18-1.07-4.25-2.33-6.19-3.79-3.82-2.87-6.23-6.61-6.85-11.4-.12-.96-.24-1.93-.33-2.9l-9.14-1.55c.01,1.47.08,2.94.2,4.41.16,2.13.43,4.24.96,6.32.46,1.77,1.2,3.42,2.25,4.91,2.85,4.04,6.52,7.13,10.94,9.33,1.68.84,3.37,1.66,5.05,2.5,1.49.75,2.99,1.46,4.57,1.98.86.29,1.71.58,2.58.88.21.72.24,1.51.93,2.01.66.49,1.38.77,2.18.9.1.23.2.42.27.62.43,1.24,1.27,2.07,2.44,2.62,1.88.88,3.83,1.54,5.79,2.18,1.76.57,3.53,1.07,5.3,1.57,1.32.38,2.65.73,3.98,1.07.49.12.99.24,1.49.3.35.05.72.06,1.07.02.6-.07.99-.41,1.18-.99.18-.54.14-1.07-.07-1.58-.11-.26-.22-.51-.38-.87.5.07.89.1,1.27.18,1.84.38,3.68.78,5.52,1.14.99.19,2,.37,3.02.27,1.56-.15,2.21-1.51,1.33-2.82ZM190.07,94.56c-.43.33-.92.19-1.36.13-.97-.12-1.93-.29-2.89-.49-1.59-.32-3.18-.65-4.77-1-1.02-.22-2.04-.46-3.05-.74-1.54-.42-3.05-.91-4.6-1.3-.68-.17-1.43-.17-2.14-.23-.09,0-.25.1-.25.15-.01.12.02.29.1.37.5.43,1.05.77,1.68.96,1.42.42,2.84.85,4.27,1.25.46.13.9.25,1.21.65.42.54.89,1.06.97,1.78.01.15-.1.32-.18.55-.52-.08-1.03-.12-1.51-.24-2.07-.54-4.14-1.06-6.18-1.68-2.07-.63-4.13-1.35-6.18-2.06-.99-.35-1.93-.81-2.91-1.18-.73-.29-1.19-.81-1.44-1.52-.22-.61-.38-1.24-.54-1.88-.1-.39-.23-.76-.53-1.04-.25-.24-.57-.23-.74.06-.16.27-.29.57-.44.88-.64-.12-1.02-.4-1.1-1.04-.13-1.3-.15-2.6.01-3.89.06-.43.15-.86.24-1.28.2-.9.68-1.67,1.19-2.41.37-.54.93-.74,1.71-.62-.11.2-.16.32-.24.43-.24.32-.21.68-.13,1.04.11.43.49.56.83.26.21-.18.39-.42.55-.65.28-.38.5-.8.8-1.15.86-1,1.95-1.47,3.28-1.3.75.1,1.49.24,2.21.51,1.09.4,2.2.73,3.28,1.14,1.18.45,2.35.94,3.51,1.44.43.19.82.46,1.22.71.16.1.19.19.3.7-.59.04-1.14-.07-1.69-.21-.56-.14-1.13-.29-1.69-.36-.31-.04-.65.02-.96.1-.26.07-.31.39-.12.62.26.34.65.46,1.03.56,1.2.31,2.35.72,3.49,1.21,1.15.5,2.29,1.05,3.43,1.62.55.27,1.06.64,1.4,1.17.1.17.13.38.19.62-.75.25-1.43.09-2.09-.03-1.21-.22-2.4-.51-3.61-.74-.6-.11-1.21-.16-1.82-.18-.26,0-.54.14-.89.24.11.23.15.4.26.51.35.33.76.54,1.24.63.49.1.98.24,1.46.38,1.01.28,2.03.55,3.03.85,1.11.33,2.22.66,3.31,1.04,1.71.59,3.43,1.15,5.05,1.97.84.43,1.67.87,2.32,1.57.29.31.62.63.46,1.14Z"/>
    <path class="cls-2" d="M181.35,87.17c-.75.25-1.43.09-2.09-.03-1.21-.22-2.4-.51-3.61-.74-.6-.11-1.21-.16-1.82-.18-.27,0-.53.14-.89.24.12.23.16.41.27.51.35.33.76.54,1.24.63.49.1.98.24,1.47.38,1.01.28,2.02.55,3.03.85,1.11.33,2.22.66,3.31,1.04,1.71.59,3.43,1.15,5.05,1.97.84.43,1.67.87,2.32,1.57.28.31.62.63.46,1.14-.43.33-.92.19-1.36.14-.97-.12-1.93-.3-2.88-.49-1.59-.32-3.19-.65-4.77-1-1.02-.22-2.05-.46-3.06-.74-1.53-.42-3.05-.91-4.59-1.3-.69-.17-1.43-.17-2.14-.23-.08,0-.25.09-.25.15-.01.12.02.3.11.37.5.43,1.05.77,1.68.96,1.42.42,2.84.85,4.26,1.25.46.13.9.25,1.21.65.42.55.89,1.06.97,1.78.02.15-.1.32-.18.55-.52-.08-1.03-.12-1.51-.25-2.06-.54-4.13-1.06-6.17-1.68-2.08-.63-4.13-1.34-6.17-2.06-.99-.35-1.93-.81-2.91-1.18-.73-.28-1.2-.81-1.45-1.52-.22-.61-.37-1.25-.53-1.88-.1-.39-.23-.76-.54-1.05-.24-.23-.57-.22-.73.06-.16.27-.29.57-.44.88-.64-.12-1.02-.41-1.09-1.05-.14-1.3-.16-2.6.01-3.89.06-.43.14-.86.23-1.28.2-.9.68-1.67,1.19-2.41.38-.55.93-.74,1.7-.61-.11.19-.16.31-.24.42-.23.33-.21.68-.12,1.04.11.42.48.56.83.26.22-.18.39-.42.56-.65.28-.38.5-.8.8-1.15.86-1,1.95-1.47,3.28-1.3.75.09,1.49.24,2.21.51,1.09.4,2.2.73,3.28,1.14,1.18.45,2.35.94,3.51,1.45.43.19.82.46,1.22.7.17.1.19.19.3.7-.59.04-1.14-.08-1.69-.21-.56-.14-1.12-.29-1.69-.36-.31-.04-.64.03-.95.1-.27.07-.31.39-.13.62.27.33.65.46,1.03.55,1.19.31,2.35.72,3.48,1.21,1.16.5,2.3,1.05,3.43,1.62.55.28,1.06.64,1.4,1.17.1.16.12.38.19.62Z"/>
  </g>
  <g>
    <path class="cls-1" d="M79.95,47.85c-.24.24-.51.44-.77.65-4.09,3.07-8.29,5.99-12.74,8.52-1.96,1.11-3.96,2.15-5.96,3.18-2.07,1.07-4.15,2.08-6.23,3.11-.21.1-.44.15-.75.26-.21-.17-.39-.32-.57-.46-.26-.21-.51-.43-.79-.62-1.21-.78-2.49-.74-3.52.26-.56.54-1.14.72-1.88.76-2.42.13-4.83.26-7.26.2-1.18-.03-2.35.09-3.48.47-1.23.41-2.32,1.07-3.33,1.86-.52.41-1.03.85-1.57,1.3-.26-.08-.51-.17-.76-.23-.38-.1-.65.04-.83.4-.18.37-.24.78-.17,1.18.19,1.16.36,2.32.68,3.46.85,2.99,1.77,5.93,2.78,8.86.38,1.08.74,2.17,1.15,3.24.52,1.31,1.13,2.59,1.65,3.9.71,1.82,1.6,3.56,2.49,5.29.79,1.51,1.68,2.99,2.54,4.46.45.75.96.9,1.8.67.29-.08.59-.13.88-.13,3.61.05,6.58-1.42,9.16-3.82,1.75-1.63,2.54-3.68,2.57-6.05,0-1.18-.17-2.32-.48-3.48-.44-1.65-1.17-3.14-2.22-4.47-.67-.85-1.47-1.57-2.36-2.18-.16-.12-.32-.24-.52-.41.13-.18.24-.34.36-.49.82-.95,1.87-1.64,2.96-2.24.26-.14.57-.21.86-.24,1.57-.21,2.55-1.21,2.71-2.77.03-.29-.01-.6,0-.9,0-.15.04-.32.07-.46,1.93-.44,3.64-1.3,5.4-2.04,1.27-.54,2.51-1.14,3.76-1.73,2.59-1.23,5.03-2.71,7.38-4.33,3.46-2.38,6.78-4.93,9.94-7.66l.45-10.1c-1.21.85-2.36,1.76-3.4,2.82ZM41.09,96.94c-.17-.29-.29-.6-.45-.9-.49-.95-1.01-1.89-1.48-2.86-.62-1.26-1.18-2.56-1.78-3.84-.77-1.64-1.49-3.31-2.1-5.02-.38-1.07-.88-2.11-1.24-3.19-.51-1.49-1.07-2.97-1.41-4.52-.26-1.15-.71-2.25-1.05-3.38-.32-1.07-.6-2.14-.86-3.21-.11-.44-.11-.91-.16-1.36.35.32.43.7.48,1.11.12,1.24.35,2.47.72,3.65,1.43,4.53,2.99,9.01,4.75,13.41.35.88.74,1.74,1.13,2.6.38.85.79,1.7,1.21,2.54.55,1.11,1.1,2.23,1.68,3.32.35.68.75,1.33,1.15,2.02-.39.07-.46-.2-.57-.38ZM54.89,72.81c-.32.77-.93,1.11-1.77.99-.44-.07-.85-.24-1.18-.52-.29-.23-.53-.52-.81-.76-.31-.25-.63-.49-.98-.69-.24-.14-.5.07-.46.32.09.51.21,1,.6,1.36.35.32.71.61,1.07.92.12.1.22.21.38.35-1.34.69-2.46,1.54-3.38,2.64-.44-.17-.84-.35-1.26-.48-.57-.19-1.15-.36-1.74-.51-.4-.1-.81-.07-1.19.09-.11.04-.19.15-.27.22.18.38.51.4.79.49,1.25.4,2.48.9,3.6,1.58,3.49,2.15,5.21,5.34,5.33,9.39.09,2.79-1.1,5.01-3.39,6.62-1.14.79-2.38,1.38-3.67,1.88-1.15.44-2.29.46-3.47.37-.58-.04-.94-.32-1.17-.81-.35-.73-.66-1.47-.99-2.21-.39-.9-.77-1.79-1.17-2.68-.44-.98-.93-1.93-1.34-2.93-.66-1.62-1.27-3.26-1.9-4.89-.16-.41-.3-.82-.46-1.24-.38-.97-.79-1.93-1.13-2.91-.86-2.51-1.8-5.01-2.37-7.61-.05-.26-.11-.53-.15-.79-.12-.9-.24-1.79-.36-2.74.6-.67,1.23-1.17,1.89-1.63,1.52-1.08,3.2-1.69,5.08-1.72.3,0,.6-.02.9-.02,2.22,0,4.43-.1,6.63-.48.27-.05.57-.17.92-.01-.35,1.21-.29,2.41,0,3.6.18.79.51,1.53,1.15,2.08.12.11.34.11.51.16.12-.48.01-.87-.1-1.25-.12-.39-.24-.78-.35-1.16-.26-.9-.25-1.8-.03-2.69.1-.42.28-.84.51-1.2.49-.75,1.35-.9,2.11-.43.4.24.77.53,1.08,1.06-.1.13-.24.29-.33.46-.3.61-.49,1.25-.53,1.93-.12,2.15,1.21,3.73,2.95,3.96.19.02.38.12.53.17.14.78.11,1.19-.12,1.72Z"/>
    <path class="cls-2" d="M55,71.09c-.15-.05-.34-.15-.53-.17-1.74-.24-3.07-1.81-2.95-3.96.04-.68.23-1.32.53-1.93.1-.18.24-.33.33-.46-.31-.53-.68-.82-1.08-1.06-.76-.47-1.63-.32-2.11.43-.24.36-.41.78-.51,1.2-.22.89-.24,1.79.03,2.69.11.38.22.77.35,1.16.12.38.23.77.1,1.25-.18-.05-.39-.05-.51-.16-.63-.55-.96-1.29-1.15-2.08-.28-1.19-.34-2.39,0-3.6-.35-.15-.65-.04-.92.01-2.2.38-4.41.48-6.63.48-.3,0-.6.02-.9.02-1.88.03-3.56.64-5.08,1.72-.66.46-1.29.96-1.89,1.63.12.94.24,1.84.36,2.74.04.26.1.53.15.79.57,2.6,1.51,5.1,2.37,7.61.34.99.75,1.94,1.13,2.91.15.41.29.82.46,1.24.63,1.63,1.24,3.27,1.9,4.89.4.99.9,1.95,1.34,2.93.4.89.78,1.79,1.17,2.68.32.74.64,1.48.99,2.21.23.49.59.76,1.17.81,1.18.09,2.32.07,3.47-.37,1.29-.49,2.53-1.08,3.67-1.88,2.29-1.61,3.48-3.82,3.39-6.62-.12-4.05-1.84-7.24-5.33-9.39-1.12-.68-2.35-1.18-3.6-1.58-.28-.09-.61-.1-.79-.49.08-.07.16-.18.27-.22.38-.16.79-.19,1.19-.09.58.15,1.16.32,1.74.51.42.13.82.31,1.26.48.93-1.1,2.04-1.95,3.38-2.64-.16-.15-.26-.26-.38-.35-.36-.31-.73-.6-1.07-.92-.39-.36-.51-.85-.6-1.36-.04-.26.22-.46.46-.32.35.2.67.44.98.69.28.24.52.53.81.76.34.28.74.46,1.18.52.84.12,1.46-.21,1.77-.99.23-.53.26-.94.12-1.72ZM47.15,94c.24-.22.51-.43.82-.57,1.29-.6,2.29-1.5,2.99-2.73.58-1,.93-2.08,1.07-3.23.04-.26.04-.54.12-.79.04-.12.21-.2.35-.3.34.4.43.82.46,1.26.13,2.59-1.65,5.67-4.62,6.98-.32.14-.65.13-.99.06-.35-.07-.47-.43-.2-.68Z"/>
    <path class="cls-2" d="M30.56,68.65c.05.45.06.92.16,1.36.26,1.08.55,2.15.86,3.21.33,1.13.79,2.23,1.05,3.37.34,1.55.9,3.03,1.41,4.53.37,1.08.86,2.12,1.24,3.19.61,1.71,1.33,3.38,2.1,5.02.6,1.28,1.17,2.57,1.78,3.84.47.97.99,1.91,1.48,2.86.15.3.28.61.45.9.11.18.18.44.57.38-.4-.7-.79-1.35-1.14-2.02-.57-1.1-1.13-2.21-1.68-3.33-.42-.84-.82-1.69-1.21-2.55-.39-.86-.77-1.72-1.12-2.59-1.76-4.41-3.33-8.89-4.75-13.42-.37-1.18-.6-2.41-.73-3.65-.04-.41-.13-.79-.48-1.11Z"/>
    <path class="cls-1" d="M52.5,86.38c-.13.11-.31.18-.34.3-.08.25-.09.53-.12.79-.14,1.15-.49,2.22-1.07,3.22-.71,1.23-1.71,2.13-3,2.73-.3.14-.57.34-.81.57-.27.25-.16.61.2.68.33.07.67.08.99-.06,2.96-1.31,4.75-4.39,4.62-6.98-.02-.44-.12-.86-.46-1.26Z"/>
  </g>
  <g>
    <g>
      <path class="cls-3" d="M109.15,90.79c12.3-5.22,15.09-17.37,15.09-17.37l1.26.33c.9-1.08,1.93-1.2,3.68-.63.25.09.49.18.73.29,1.63.7,3.33,1.05,5.1.98,1.75-.06,3.5-.09,5.22-.33,5.42-.76,10.21-3.03,14.48-6.36,3.96-3.08,6.03-7.41,7.36-12.12.38-1.33.65-2.73.73-4.12.37-6.33-.25-12.55-2.19-18.63-1.47-4.58-2.8-9.2-4.26-13.78-1.28-4-2.61-7.98-4.02-11.94-1.96-5.49-6.67-8.21-12.46-6.7-1.44.38-2.86.82-4.27,1.29-11.6,3.91-23.2,7.83-34.8,11.75h0c-11.27,3.81-22.54,7.6-33.8,11.43-2.07.7-4.15,1.42-6.1,2.39-3.61,1.81-5.46,4.81-5.26,8.91.05.95.31,1.9.62,2.8,2.7,8.13,5.46,16.25,8.15,24.38,1.68,5.1,4.07,9.82,6.93,14.35,3.39,5.37,7.67,9.7,13.43,12.5,5.27,2.56,10.75,3.5,16.55,2.75,2.72-.36,5.27-1.27,7.81-2.19ZM129.98,30.48c3.47.24,5.43,3.18,6.07,4.15.66,1,1.21,2.07,1.61,3.16.05.12.09.24.13.36.07.2.13.4.19.6.23.79.39,1.61.48,2.42.5,4.64-1.56,8.23-5.54,9.6l-.26.09-.28.03c-.29.03-.58.07-.87.1-.74.09-1.56.2-2.43.19-2.86-.04-5.35-1.58-7.01-4.34-.74-1.24-1.34-2.53-1.78-3.82-.32-.96-.57-1.95-.72-2.95-.43-2.74.34-5.14,2.18-6.73,2.43-2.12,5.2-3.08,8.24-2.87ZM100.62,66.39l-.11.03c-4.6,1.33-8.07-.08-10.91-4.44-.78-1.19-1.39-2.46-1.87-3.48-.18-.38-.35-.74-.52-1.07l-.16-.31-.03-.1s-.01-.02-.02-.03c-.05-.19-.1-.37-.14-.54-.08-.3-.17-.59-.24-.86,0-.04-.01-.07-.03-.1-.07-.24-.14-.46-.2-.69-.03-.11-.06-.2-.08-.31-.17-.58-.3-1.16-.39-1.78-.73-5.12,1.57-7.66,3.64-8.9,1.7-1.02,3.58-1.74,5.77-2.2,2.73-.57,5.28.38,7.19,2.65.71.85,1.52,1.88,2.15,3.06.59,1.1,1.1,2.26,1.5,3.45.56,1.66.93,3.41,1.13,5.2.47,4.5-1.81,8.55-5.67,10.08-.36.15-.71.25-1.01.33Z"/>
      <path class="cls-3" d="M129.81,28.68s-3.8,14.16,4.9,23.6c8.7,9.44,9.67,0,9.67,0v-10.68l-2.27-7.28s-5.36-9.33-5.43-9.67-1.37-1.14-1.37-1.14l-4.57,2.08-.94,3.09Z"/>
    </g>
    <g>
      <path class="cls-2" d="M170.96,31.87h0s0,0,0,0c-.67-1.8-2.22-3.13-4.27-3.87,0,0,0,0-.01,0-.29-.1-.58-.2-.89-.28-.03,0-.05-.01-.08-.02-.29-.07-.58-.14-.88-.2-.05,0-.11-.01-.16-.02-.28-.05-.56-.09-.85-.12-.08,0-.17,0-.25-.02-.26-.02-.53-.04-.8-.05-.11,0-.23,0-.35,0-.24,0-.49,0-.74.01-.15,0-.31.03-.46.04-.22.02-.44.03-.66.06-.19.02-.38.06-.57.09-.19.03-.38.05-.57.09-.23.04-.47.1-.71.16-.15.04-.3.06-.45.1-.39.1-.77.22-1.16.35-1.95.66-3.68,1.61-5.08,2.75-.56.45-1.07.93-1.53,1.43-.45.5-.85,1.02-1.18,1.56-1.17,1.87-1.56,3.89-.94,5.74.09.26.2.52.32.76.25.49.57.94.95,1.34.19.2.4.39.62.58.44.36.94.68,1.48.95.54.27,1.14.49,1.76.67,2.52.69,5.63.6,8.76-.46.43-.15.85-.31,1.26-.48.1-.04.19-.09.29-.13.32-.14.64-.29.94-.45.08-.04.16-.08.23-.13.33-.18.65-.36.95-.56.04-.03.08-.05.12-.08,3.92-2.54,6.04-6.36,4.93-9.65-.02-.06-.05-.1-.07-.16Z"/>
      <path class="cls-1" d="M173.07,31.34c-1.84-5.44-9.14-7.72-16.64-5.19-7.49,2.53-11.92,8.77-10.09,14.21,1.84,5.44,9.14,7.72,16.64,5.19,7.49-2.53,11.92-8.77,10.09-14.21ZM166.1,41.68s-.08.05-.12.08c-.31.19-.62.38-.95.56-.08.04-.15.09-.23.13-.31.16-.62.31-.94.45-.1.04-.19.09-.29.13-.41.17-.83.34-1.26.48-3.13,1.06-6.24,1.15-8.76.46-.63-.17-1.22-.4-1.76-.67-.54-.27-1.04-.59-1.48-.95-.22-.18-.43-.37-.62-.58-.38-.41-.7-.85-.95-1.34-.13-.24-.23-.5-.32-.76-.62-1.85-.23-3.88.94-5.74.33-.53.73-1.06,1.18-1.56.45-.5.96-.98,1.53-1.43,1.4-1.13,3.13-2.09,5.08-2.75.39-.13.78-.25,1.16-.35.15-.04.3-.07.45-.1.24-.06.47-.12.71-.16.19-.04.38-.06.57-.09.19-.03.38-.07.57-.09.22-.03.44-.04.66-.06.15-.01.31-.03.46-.04.25-.01.49-.01.74-.01.12,0,.23,0,.35,0,.27,0,.54.03.8.05.08,0,.17,0,.25.02.29.03.57.07.85.12.05,0,.11.01.16.02.3.05.59.12.88.2.03,0,.05.01.08.02.31.08.6.18.89.28,0,0,0,0,.01,0,2.05.75,3.6,2.08,4.27,3.87,0,0,0,0,0,0h0c.02.05.05.1.07.16,1.11,3.28-1.01,7.11-4.93,9.65Z"/>
      <path class="cls-2" d="M166.09,17.61c-.09-.17-.18-.34-.28-.5-.1-.16-.21-.32-.33-.47-.24-.3-.51-.58-.8-.85-.29-.26-.62-.5-.96-.72-.18-.1-.35-.21-.54-.31-1.77-.93-4.08-1.35-6.58-1.15-.07,0-.13.01-.21.02-.61.05-1.24.15-1.87.28-.67.14-1.35.32-2.03.55-6.25,2.11-10.16,7.25-8.74,11.48,1.43,4.23,7.66,5.95,13.91,3.84.46-.15.9-.32,1.33-.51.22-.09.43-.18.64-.29.21-.1.41-.21.61-.31.21-.11.4-.22.6-.33,4.32-2.51,6.73-6.58,5.56-10.04-.08-.24-.18-.47-.3-.69Z"/>
      <path class="cls-1" d="M168.43,17.61c-1.83-5.43-9.14-7.71-16.63-5.19-7.49,2.53-11.92,8.77-10.08,14.21,1.83,5.44,9.14,7.72,16.63,5.19,7.49-2.53,11.92-8.77,10.08-14.21ZM160.84,28.34c-.19.11-.39.22-.6.33-.2.1-.4.21-.61.31-.21.1-.42.2-.64.29-.43.19-.88.36-1.33.51-6.25,2.11-12.48.39-13.91-3.84-1.43-4.23,2.49-9.37,8.74-11.48.68-.23,1.36-.41,2.03-.55.63-.13,1.26-.23,1.87-.28.07,0,.14-.01.21-.02,2.5-.2,4.81.22,6.58,1.15.19.1.37.21.54.31.35.22.67.46.96.72.29.26.57.54.8.85.12.15.23.31.33.47.1.16.19.33.28.5.13.22.22.46.3.69,1.17,3.46-1.24,7.52-5.56,10.04Z"/>
      <g>
        <path class="cls-1" d="M161.21,28.12c.16-.64.17-1.31,0-2-.72-2.84-4.24-4.72-7.87-4.2-3.63.52-5.99,3.24-5.28,6.08.27,1.07.94,1.99,1.85,2.72.02.01.04.03.05.04-.01,0-.02,0-.03,0h0c4.82.87,9.24.01,11.18-2.49.03-.04.06-.08.09-.12v-.02Z"/>
        <path class="cls-4" d="M156.05,29.06c-1.21.5-2.73.13-3.39-.82s-.21-2.13,1-2.64c1.21-.5,2.73-.13,3.39.82.66.95.21,2.13-1,2.64Z"/>
      </g>
      <g>
        <path class="cls-1" d="M169.79,39.67c-1.82,3.05-4.46,4.4-6.67,4.98-1.43.1-2.99,0-4.58-.29h0,.04s-.04-.02-.05-.04c-.92-.72-1.59-1.65-1.85-2.72-.71-2.84,1.65-5.56,5.27-6.08,3.61-.52,7.11,1.34,7.85,4.15Z"/>
        <path class="cls-4" d="M164.66,42.66c-1.21.5-2.73.13-3.39-.82s-.21-2.13,1-2.64c1.21-.5,2.73-.13,3.39.82.66.95.21,2.13-1,2.64Z"/>
      </g>
    </g>
  </g>
  <g>
    <path class="cls-1" d="M26.81,65.49c2.23-1.11,4.47-2.2,6.69-3.34,2.15-1.11,4.3-2.22,6.41-3.42,4.78-2.72,9.3-5.84,13.69-9.15.29-.22.58-.44.83-.69,1.43-1.45,3.04-2.66,4.75-3.76,1.16-.74,2.36-1.4,3.69-1.79.88-.26,1.77-.37,2.68-.15.81.2,1.47.63,1.85,1.39.76,1.53.2,3.49-1.27,4.37-.5.3-.94.67-1.35,1.08-5.48,5.54-11.44,10.51-17.86,14.93-2.53,1.74-5.16,3.33-7.94,4.65-1.34.64-2.67,1.28-4.04,1.86-1.89.8-3.73,1.72-5.8,2.2-.03.16-.08.33-.08.5,0,.32.04.65.01.97-.16,1.68-1.23,2.75-2.91,2.98-.32.04-.65.11-.93.26-1.17.65-2.29,1.39-3.18,2.41-.13.15-.24.33-.39.52.23.18.39.31.56.44.96.67,1.81,1.44,2.54,2.35,1.13,1.43,1.92,3.02,2.39,4.8.33,1.24.52,2.47.51,3.74-.02,2.54-.88,4.76-2.76,6.5-2.77,2.58-5.97,4.16-9.85,4.1-.32,0-.64.05-.95.14-.9.25-1.45.09-1.93-.72-.94-1.58-1.89-3.16-2.74-4.79-.96-1.86-1.91-3.73-2.68-5.68-.55-1.41-1.21-2.78-1.77-4.19-.45-1.14-.84-2.31-1.24-3.48-1.09-3.15-2.08-6.32-2.99-9.52-.35-1.22-.53-2.47-.74-3.72-.07-.43-.02-.87.18-1.27.19-.38.48-.52.89-.43.28.07.54.16.82.25.58-.48,1.13-.96,1.69-1.4,1.09-.85,2.26-1.55,3.58-2,1.22-.41,2.48-.54,3.74-.51,2.6.06,5.2-.07,7.8-.22.79-.04,1.42-.23,2.02-.82,1.11-1.08,2.48-1.12,3.77-.28.3.2.57.44.85.67.2.16.39.31.61.49.34-.11.59-.17.81-.28ZM3.35,73.76c.04.28.1.57.16.85.61,2.8,1.61,5.48,2.54,8.18.36,1.06.81,2.09,1.21,3.13.17.44.32.88.49,1.32.67,1.75,1.33,3.52,2.04,5.26.44,1.07.97,2.1,1.44,3.15.43.96.84,1.92,1.26,2.88.35.79.68,1.59,1.05,2.38.24.52.64.82,1.26.87,1.27.09,2.5.08,3.73-.39,1.39-.53,2.72-1.17,3.94-2.02,2.47-1.73,3.74-4.11,3.65-7.11-.13-4.35-1.98-7.78-5.73-10.09-1.2-.74-2.52-1.27-3.87-1.7-.3-.1-.65-.11-.85-.52.09-.08.18-.19.29-.24.41-.18.85-.21,1.28-.09.63.16,1.25.34,1.87.54.44.14.87.33,1.35.52,1-1.18,2.2-2.09,3.64-2.83-.17-.16-.29-.28-.41-.38-.38-.33-.78-.64-1.15-.99-.42-.39-.56-.92-.65-1.46-.05-.28.24-.5.49-.35.37.22.72.48,1.05.75.31.25.56.56.87.81.37.3.8.49,1.28.56.9.14,1.56-.23,1.91-1.06.24-.57.27-1.01.13-1.85-.17-.06-.37-.15-.57-.18-1.87-.25-3.3-1.94-3.17-4.26.04-.73.25-1.42.57-2.08.1-.19.25-.35.36-.49-.33-.58-.74-.88-1.16-1.14-.81-.51-1.75-.34-2.27.47-.25.39-.44.84-.55,1.29-.24.96-.26,1.93.03,2.89.12.42.24.83.37,1.25.13.42.25.83.11,1.35-.19-.06-.42-.06-.55-.18-.68-.59-1.04-1.38-1.23-2.24-.3-1.28-.37-2.57.01-3.87-.38-.17-.7-.04-.99,0-2.36.42-4.74.52-7.13.52-.33,0-.65.02-.98.03-2.02.03-3.82.68-5.46,1.85-.71.5-1.39,1.03-2.03,1.76.13,1.01.25,1.98.39,2.94ZM1.52,72.7c.28,1.16.59,2.31.93,3.45.36,1.21.85,2.4,1.13,3.63.37,1.67.97,3.26,1.52,4.86.39,1.16.93,2.28,1.34,3.43.66,1.84,1.42,3.63,2.25,5.4.64,1.37,1.25,2.76,1.91,4.12.5,1.04,1.06,2.05,1.59,3.08.17.32.3.66.48.97.11.19.2.47.61.41-.43-.75-.85-1.45-1.23-2.17-.62-1.18-1.21-2.38-1.8-3.58-.45-.91-.88-1.82-1.3-2.74-.42-.92-.83-1.85-1.21-2.78-1.89-4.74-3.58-9.55-5.1-14.42-.4-1.27-.64-2.59-.78-3.93-.05-.44-.14-.85-.51-1.2.06.49.06.99.18,1.46Z"/>
    <path class="cls-2" d="M5,69.06c1.64-1.16,3.44-1.81,5.46-1.85.33,0,.65-.03.98-.03,2.39,0,4.77-.1,7.13-.52.29-.05.62-.18.99,0-.38,1.3-.31,2.59-.01,3.87.2.86.56,1.65,1.23,2.24.13.12.36.12.55.18.13-.52.01-.93-.11-1.35-.13-.41-.25-.83-.37-1.25-.29-.96-.27-1.93-.03-2.89.11-.45.3-.9.55-1.29.53-.81,1.46-.98,2.27-.47.43.27.83.57,1.16,1.14-.1.14-.26.3-.36.49-.33.65-.53,1.34-.57,2.08-.13,2.32,1.3,4.01,3.17,4.26.2.03.4.12.57.18.15.84.11,1.28-.13,1.85-.35.83-1.01,1.2-1.91,1.06-.48-.07-.91-.26-1.28-.56-.31-.25-.56-.56-.87-.81-.33-.27-.68-.53-1.05-.75-.25-.15-.54.08-.49.35.09.54.23,1.07.65,1.46.37.34.77.66,1.15.99.13.11.24.23.41.38-1.44.74-2.64,1.65-3.64,2.83-.47-.18-.9-.37-1.35-.52-.62-.2-1.24-.38-1.87-.54-.43-.11-.87-.08-1.28.09-.12.05-.2.16-.29.24.19.41.55.43.85.52,1.35.44,2.66.96,3.87,1.7,3.75,2.31,5.61,5.74,5.73,10.09.09,3.01-1.18,5.38-3.65,7.11-1.22.85-2.55,1.49-3.94,2.02-1.23.47-2.46.48-3.73.39-.62-.04-1.01-.35-1.26-.87-.37-.78-.71-1.58-1.05-2.38-.42-.96-.83-1.92-1.26-2.88-.47-1.05-1-2.08-1.44-3.15-.71-1.74-1.36-3.5-2.04-5.26-.17-.44-.32-.88-.49-1.32-.4-1.05-.85-2.08-1.21-3.13-.93-2.7-1.93-5.38-2.54-8.18-.06-.28-.13-.56-.16-.85-.13-.96-.25-1.93-.39-2.94.64-.72,1.32-1.26,2.03-1.76ZM24.55,90.63c-.08.27-.09.57-.13.85-.15,1.23-.53,2.39-1.15,3.47-.76,1.32-1.84,2.29-3.22,2.93-.32.15-.62.37-.87.61-.29.27-.17.65.21.74.36.08.72.09,1.06-.06,3.18-1.41,5.11-4.72,4.96-7.5-.02-.48-.13-.92-.49-1.36-.14.12-.33.2-.37.32Z"/>
    <path class="cls-2" d="M1.34,71.24c.06.49.06.99.18,1.46.28,1.16.59,2.31.93,3.45.36,1.21.85,2.4,1.13,3.63.37,1.67.97,3.26,1.52,4.86.39,1.16.93,2.28,1.34,3.43.66,1.84,1.42,3.63,2.25,5.4.64,1.37,1.25,2.76,1.91,4.12.5,1.04,1.06,2.05,1.59,3.08.17.32.3.66.48.97.11.19.2.47.61.41-.43-.75-.85-1.45-1.23-2.17-.62-1.18-1.21-2.38-1.8-3.58-.45-.91-.88-1.82-1.3-2.74-.42-.92-.83-1.85-1.21-2.78-1.89-4.74-3.58-9.55-5.1-14.42-.4-1.27-.64-2.59-.78-3.93-.05-.44-.14-.85-.51-1.2Z"/>
    <path class="cls-1" d="M24.92,90.3c-.14.12-.33.2-.37.32-.08.27-.09.57-.13.85-.15,1.23-.53,2.39-1.15,3.47-.76,1.32-1.84,2.29-3.22,2.93-.32.15-.62.37-.87.61-.29.27-.17.65.21.74.36.08.72.09,1.06-.06,3.18-1.41,5.11-4.72,4.96-7.5-.02-.48-.13-.92-.49-1.36Z"/>
  </g>
  <g>
    <path class="cls-1" d="M149.07,92.06c.16-.12.39-.29.62-.46,1.11-.8,2.35-1.1,3.7-.87.67.11,1.35.28,2,.47,1.25.37,2.5.74,3.72,1.19,1.46.54,2.95,1,4.3,1.79.37.22.74.46,1.08.72.66.51.95,1.17.69,2.01-.04.14-.06.28-.1.46.55.49,1.27.66,1.89,1.01.69.39,1.37.8,2.03,1.24.24.15.44.38.63.59.79.87.85,1.45.31,2.55-.03.06-.03.14-.04.21.19.31.53.35.83.46,1.28.5,2.58.96,3.84,1.48,1.17.49,2.28,1.09,3.22,1.97.32.29.63.61.87.96.88,1.31.23,2.68-1.34,2.82-1.02.1-2.02-.08-3.02-.27-1.84-.36-3.68-.77-5.52-1.14-.38-.08-.77-.11-1.27-.17.15.36.27.61.37.87.22.52.26,1.04.07,1.59-.2.57-.59.92-1.18.98-.36.04-.72.03-1.08-.02-.5-.07-1-.17-1.49-.3-1.33-.35-2.66-.7-3.98-1.08-1.77-.51-3.55-1.01-5.3-1.57-1.96-.63-3.91-1.29-5.79-2.17-1.18-.55-2.01-1.38-2.44-2.62-.07-.2-.17-.39-.27-.62-.8-.12-1.52-.41-2.18-.89-.69-.51-.72-1.29-.94-2.02-.87-.3-1.72-.6-2.58-.88-1.58-.52-3.09-1.23-4.58-1.98-1.68-.84-3.37-1.66-5.05-2.5-4.42-2.2-8.09-5.29-10.94-9.33-1.05-1.49-1.79-3.14-2.25-4.91-.53-2.08-.8-4.19-.96-6.32-.25-3.25-.27-6.5-.03-9.75.05-.61.13-1.22.27-1.82.31-1.35,1.22-2.19,2.5-2.64,1.16-.4,2.35-.42,3.53-.08,1.32.37,2.1,1.36,2.18,2.77.1,1.91.12,3.83.26,5.74.14,1.95.32,3.89.57,5.83.63,4.79,3.04,8.53,6.86,11.39,1.94,1.46,4.01,2.72,6.19,3.79,1.75.86,3.54,1.64,5.31,2.46.13.06.27.1.46.16.59-.35,1.1-.92,1.86-.97.68-.05,1.37-.06,2.13-.1ZM168.8,101.74c-.07-.24-.09-.45-.19-.62-.34-.53-.85-.9-1.4-1.17-1.13-.57-2.27-1.11-3.43-1.62-1.13-.49-2.29-.9-3.48-1.21-.38-.1-.76-.22-1.03-.55-.18-.23-.14-.55.13-.62.31-.07.64-.14.95-.1.57.08,1.13.22,1.69.36.55.14,1.1.25,1.69.21-.11-.51-.13-.6-.3-.7-.4-.25-.79-.52-1.22-.7-1.16-.51-2.32-1-3.51-1.45-1.08-.41-2.19-.74-3.28-1.14-.72-.27-1.46-.41-2.21-.51-1.33-.17-2.42.3-3.28,1.3-.3.35-.53.78-.8,1.15-.17.23-.34.47-.56.65-.35.29-.72.16-.83-.26-.09-.36-.11-.71.12-1.04.08-.11.13-.23.24-.42-.77-.12-1.33.07-1.7.61-.51.74-.99,1.51-1.19,2.41-.09.42-.18.85-.23,1.28-.17,1.3-.15,2.59-.01,3.89.07.64.46.93,1.09,1.05.15-.31.28-.6.44-.88.17-.28.49-.29.73-.06.3.29.43.65.54,1.05.16.63.32,1.26.53,1.88.25.71.71,1.24,1.45,1.52.98.38,1.92.84,2.91,1.18,2.05.72,4.1,1.43,6.17,2.06,2.04.62,4.11,1.14,6.17,1.68.48.13.99.16,1.51.25.08-.23.2-.4.18-.55-.08-.72-.55-1.24-.97-1.78-.31-.41-.75-.52-1.21-.65-1.42-.41-2.84-.83-4.26-1.25-.63-.19-1.19-.53-1.68-.96-.08-.07-.12-.25-.11-.37,0-.06.17-.16.25-.15.72.06,1.45.06,2.14.23,1.54.39,3.06.88,4.59,1.3,1.01.28,2.03.51,3.06.74,1.59.35,3.18.68,4.77,1,.96.19,1.92.37,2.88.49.44.06.93.19,1.36-.14.16-.51-.18-.83-.46-1.14-.65-.7-1.48-1.15-2.32-1.57-1.62-.82-3.34-1.38-5.05-1.97-1.09-.38-2.2-.71-3.31-1.04-1-.3-2.02-.57-3.03-.85-.49-.13-.97-.28-1.47-.38-.48-.09-.89-.3-1.24-.63-.11-.11-.15-.28-.27-.51.36-.1.63-.25.89-.24.61.02,1.23.07,1.82.18,1.21.22,2.4.52,3.61.74.66.12,1.34.28,2.09.03Z"/>
    <path class="cls-2" d="M168.8,101.74c-.75.25-1.43.09-2.09-.03-1.21-.22-2.4-.51-3.61-.74-.6-.11-1.21-.16-1.82-.18-.27,0-.53.14-.89.24.12.23.16.41.27.51.35.33.76.54,1.24.63.49.1.98.24,1.47.38,1.01.28,2.02.55,3.03.85,1.11.33,2.22.66,3.31,1.04,1.71.59,3.43,1.15,5.05,1.97.84.43,1.67.87,2.32,1.57.28.31.62.63.46,1.14-.43.33-.92.19-1.36.14-.97-.12-1.93-.3-2.88-.49-1.59-.32-3.19-.65-4.77-1-1.02-.22-2.05-.46-3.06-.74-1.53-.42-3.05-.91-4.59-1.3-.69-.17-1.43-.17-2.14-.23-.08,0-.25.09-.25.15-.01.12.02.3.11.37.5.43,1.05.77,1.68.96,1.42.42,2.84.85,4.26,1.25.46.13.9.25,1.21.65.42.55.89,1.06.97,1.78.02.15-.1.32-.18.55-.52-.08-1.03-.12-1.51-.25-2.06-.54-4.13-1.06-6.17-1.68-2.08-.63-4.13-1.34-6.17-2.06-.99-.35-1.93-.81-2.91-1.18-.73-.28-1.2-.81-1.45-1.52-.22-.61-.37-1.25-.53-1.88-.1-.39-.23-.76-.54-1.05-.24-.23-.57-.22-.73.06-.16.27-.29.57-.44.88-.64-.12-1.02-.41-1.09-1.05-.14-1.3-.16-2.6.01-3.89.06-.43.14-.86.23-1.28.2-.9.68-1.67,1.19-2.41.38-.55.93-.74,1.7-.61-.11.19-.16.31-.24.42-.23.33-.21.68-.12,1.04.11.42.48.56.83.26.22-.18.39-.42.56-.65.28-.38.5-.8.8-1.15.86-1,1.95-1.47,3.28-1.3.75.09,1.49.24,2.21.51,1.09.4,2.2.73,3.28,1.14,1.18.45,2.35.94,3.51,1.45.43.19.82.46,1.22.7.17.1.19.19.3.7-.59.04-1.14-.08-1.69-.21-.56-.14-1.12-.29-1.69-.36-.31-.04-.64.03-.95.1-.27.07-.31.39-.13.62.27.33.65.46,1.03.55,1.19.31,2.35.72,3.48,1.21,1.16.5,2.3,1.05,3.43,1.62.55.28,1.06.64,1.4,1.17.1.16.12.38.19.62Z"/>
  </g>
</svg>